:FULLY-SPECIFIED
:FORCE-ALL-JOINTS-BE-3DOF
:DEGREES
2752
root -3.86305 14.635 -28.7075 149.427 -76.7685 -152.298
lfemur -45.6662 33.8308 -4.55397
ltibia 54.8587 -0 0
lfoot 2.9423 0.951886 -0.229979
ltoes -18.9509 0 0
rfemur -29.5313 -16.8969 18.9691
rtibia 74.638 -0 0
rfoot -29.2111 -19.2181 0.00256611
rtoes -14.126 0 0
lowerback 14.8576 5.32564 0.709543
upperback -2.55346 7.40976 1.52119
thorax -11.2066 3.50978 -0.607637
lowerneck -3.52032 8.2328 1.14303
upperneck 7.97176 10.8011 1.55016
head 3.22722 5.43312 0.632543
lclavicle -1.02055e-14 -1.41383e-14 -1.44436e-30
lhumerus -2.12094 5.52004 82.6019
lradius 91.6927 -0 0
lwrist -19.1329 0 0
lhand -39.7304 28.904 0.0159416
lfingers 7.12502 -0 0
lthumb -12.7073 58.4855 0.0174436
rclavicle -1.02055e-14 -1.41383e-14 -1.44436e-30
rhumerus -49.3524 47.8643 -100.572
rradius 104.904 -0 0
rwrist -75.254 0 0
rhand 0.553983 -28.507 0.140633
rfingers 7.12502 -0 0
rthumb 26.11 -56.5877 0.171592
2753
root -3.85319 14.6395 -28.7162 148.975 -76.9418 -151.84
lfemur -45.6004 33.7606 -4.54201
ltibia 54.8211 -0 0
lfoot 2.90337 0.971013 -0.232859
ltoes -18.9921 0 0
rfemur -29.5076 -16.8645 18.9642
rtibia 74.5667 -0 0
rfoot -29.1779 -19.2179 0.00259821
rtoes -14.1334 0 0
lowerback 14.8403 5.3193 0.706015
upperback -2.55711 7.40051 1.52159
thorax -11.2006 3.50584 -0.602393
lowerneck -3.52754 8.20764 1.12556
upperneck 7.98177 10.7676 1.5605
head 3.2313 5.41635 0.636829
lclavicle -1.01232e-14 -1.4081e-14 -1.46241e-30
lhumerus -2.17408 5.49262 82.6109
lradius 91.5671 -0 0
lwrist -19.1339 0 0
lhand -39.7182 28.9083 0.0161408
lfingers 7.12502 -0 0
lthumb -12.6955 58.4904 0.0176617
rclavicle -1.01232e-14 -1.4081e-14 -1.46241e-30
rhumerus -49.295 47.7898 -100.506
rradius 104.766 -0 0
rwrist -75.1019 0 0
rhand 0.517762 -28.5196 0.142393
rfingers 7.12502 -0 0
rthumb 26.0752 -56.6037 0.173739
2754
root -3.84332 14.644 -28.7249 148.511 -77.1143 -151.37
lfemur -45.5347 33.6905 -4.53016
ltibia 54.7836 -0 0
lfoot 2.86444 0.990143 -0.235725
ltoes -19.0334 0 0
rfemur -29.4838 -16.8321 18.9593
rtibia 74.4955 -0 0
rfoot -29.1447 -19.2176 0.00263018
rtoes -14.1407 0 0
lowerback 14.823 5.31295 0.702488
upperback -2.56075 7.39127 1.52199
thorax -11.1946 3.5019 -0.59715
lowerneck -3.53475 8.18247 1.1081
upperneck 7.99177 10.734 1.57083
head 3.23538 5.39959 0.641114
lclavicle -1.00409e-14 -1.40238e-14 -1.48038e-30
lhumerus -2.22722 5.46522 82.6199
lradius 91.4415 -0 0
lwrist -19.1348 0 0
lhand -39.706 28.9125 0.0163392
lfingers 7.12502 -0 0
lthumb -12.6838 58.4952 0.0178788
rclavicle -1.00409e-14 -1.40238e-14 -1.48038e-30
rhumerus -49.2379 47.7153 -100.44
rradius 104.629 -0 0
rwrist -74.9498 0 0
rhand 0.481541 -28.5322 0.144146
rfingers 7.12502 -0 0
rthumb 26.0403 -56.6196 0.175877
2755
root -3.83346 14.6484 -28.7335 148.035 -77.2859 -150.888
lfemur -45.4691 33.6203 -4.51842
ltibia 54.746 -0 0
lfoot 2.8255 1.00927 -0.238579
ltoes -19.0746 0 0
rfemur -29.4601 -16.7998 18.9544
rtibia 74.4242 -0 0
rfoot -29.1115 -19.2174 0.00266199
rtoes -14.1481 0 0
lowerback 14.8057 5.30661 0.698964
upperback -2.5644 7.38202 1.52238
thorax -11.1886 3.49795 -0.591908
lowerneck -3.54196 8.1573 1.09064
upperneck 8.00176 10.7005 1.58115
head 3.23946 5.38282 0.645398
lclavicle -9.95861e-15 -1.39665e-14 -1.49827e-30
lhumerus -2.28036 5.43782 82.629
lradius 91.316 -0 0
lwrist -19.1358 0 0
lhand -39.6938 28.9168 0.0165367
lfingers 7.12502 -0 0
lthumb -12.672 58.5 0.0180949
rclavicle -9.95861e-15 -1.39665e-14 -1.49827e-30
rhumerus -49.181 47.6407 -100.374
rradius 104.492 -0 0
rwrist -74.7977 0 0
rhand 0.44532 -28.5448 0.14589
rfingers 7.12502 -0 0
rthumb 26.0055 -56.6356 0.178005
2756
root -3.82359 14.6529 -28.7422 147.545 -77.4565 -150.392
lfemur -45.4035 33.5501 -4.50678
ltibia 54.7084 -0 0
lfoot 2.78657 1.02841 -0.24142
ltoes -19.1159 0 0
rfemur -29.4364 -16.7674 18.9496
rtibia 74.3529 -0 0
rfoot -29.0783 -19.2171 0.00269366
rtoes -14.1555 0 0
lowerback 14.7884 5.30026 0.695441
upperback -2.56804 7.37278 1.52278
thorax -11.1827 3.49401 -0.586666
lowerneck -3.54915 8.13213 1.07318
upperneck 8.01175 10.6669 1.59147
head 3.24354 5.36605 0.649681
lclavicle -9.87631e-15 -1.39093e-14 -1.51608e-30
lhumerus -2.33351 5.41043 82.6381
lradius 91.1904 -0 0
lwrist -19.1368 0 0
lhand -39.6816 28.9211 0.0167333
lfingers 7.12502 -0 0
lthumb -12.6602 58.5049 0.01831
rclavicle -9.87631e-15 -1.39093e-14 -1.51608e-30
rhumerus -49.1242 47.5661 -100.308
rradius 104.354 -0 0
rwrist -74.6456 0 0
rhand 0.409098 -28.5574 0.147626
rfingers 7.12502 -0 0
rthumb 25.9707 -56.6516 0.180124
2757
root -3.81373 14.6574 -28.7509 147.042 -77.6263 -149.883
lfemur -45.338 33.4799 -4.49525
ltibia 54.6708 -0 0
lfoot 2.74763 1.04754 -0.244247
ltoes -19.1571 0 0
rfemur -29.4127 -16.735 18.9448
rtibia 74.2816 -0 0
rfoot -29.0451 -19.2169 0.00272519
rtoes -14.1629 0 0
lowerback 14.7711 5.29392 0.691921
upperback -2.57169 7.36353 1.52318
thorax -11.1767 3.49006 -0.581424
lowerneck -3.55634 8.10696 1.05573
upperneck 8.02173 10.6333 1.60177
head 3.24762 5.34928 0.653962
lclavicle -9.79402e-15 -1.3852e-14 -1.5338e-30
lhumerus -2.38666 5.38305 82.6472
lradius 91.0648 -0 0
lwrist -19.1377 0 0
lhand -39.6694 28.9253 0.0169289
lfingers 7.12502 -0 0
lthumb -12.6485 58.5097 0.0185241
rclavicle -9.79402e-15 -1.3852e-14 -1.5338e-30
rhumerus -49.0677 47.4914 -100.243
rradius 104.217 -0 0
rwrist -74.4936 0 0
rhand 0.372876 -28.57 0.149355
rfingers 7.12502 -0 0
rthumb 25.9359 -56.6676 0.182233
2758
root -3.80386 14.6618 -28.7596 146.525 -77.7951 -149.36
lfemur -45.2725 33.4096 -4.48382
ltibia 54.6332 -0 0
lfoot 2.70869 1.06668 -0.247062
ltoes -19.1984 0 0
rfemur -29.389 -16.7026 18.9399
rtibia 74.2103 -0 0
rfoot -29.0119 -19.2166 0.00275657
rtoes -14.1703 0 0
lowerback 14.7538 5.28757 0.688402
upperback -2.57533 7.35429 1.52358
thorax -11.1707 3.48611 -0.576183
lowerneck -3.56352 8.08178 1.03829
upperneck 8.0317 10.5998 1.61207
head 3.2517 5.33251 0.658242
lclavicle -9.71172e-15 -1.37947e-14 -1.55145e-30
lhumerus -2.43981 5.35568 82.6563
lradius 90.9392 -0 0
lwrist -19.1387 0 0
lhand -39.6572 28.9296 0.0171237
lfingers 7.12502 -0 0
lthumb -12.6367 58.5145 0.0187372
rclavicle -9.71172e-15 -1.37947e-14 -1.55145e-30
rhumerus -49.0114 47.4167 -100.178
rradius 104.079 -0 0
rwrist -74.3415 0 0
rhand 0.336654 -28.5826 0.151075
rfingers 7.12502 -0 0
rthumb 25.9011 -56.6836 0.184332
2759
root -3.794 14.6663 -28.7682 145.994 -77.9628 -148.823
lfemur -45.2072 33.3394 -4.4725
ltibia 54.5956 -0 0
lfoot 2.66975 1.08582 -0.249863
ltoes -19.2396 0 0
rfemur -29.3653 -16.6702 18.9351
rtibia 74.139 -0 0
rfoot -28.9786 -19.2164 0.0027878
rtoes -14.1777 0 0
lowerback 14.7365 5.28123 0.684885
upperback -2.57897 7.34504 1.52399
thorax -11.1647 3.48217 -0.570942
lowerneck -3.57069 8.05661 1.02085
upperneck 8.04167 10.5662 1.62237
head 3.25577 5.31574 0.66252
lclavicle -9.62942e-15 -1.37375e-14 -1.56901e-30
lhumerus -2.49296 5.32831 82.6654
lradius 90.8136 -0 0
lwrist -19.1397 0 0
lhand -39.645 28.9339 0.0173176
lfingers 7.12502 -0 0
lthumb -12.625 58.5194 0.0189493
rclavicle -9.62942e-15 -1.37375e-14 -1.56901e-30
rhumerus -48.9553 47.3419 -100.113
rradius 103.942 -0 0
rwrist -74.1894 0 0
rhand 0.300431 -28.5952 0.152787
rfingers 7.12502 -0 0
rthumb 25.8663 -56.6996 0.186421
2760
root -3.78413 14.6708 -28.7769 145.447 -78.1295 -148.27
lfemur -45.1419 33.2692 -4.46128
ltibia 54.558 -0 0
lfoot 2.63081 1.10496 -0.252652
ltoes -19.2809 0 0
rfemur -29.3416 -16.6379 18.9303
rtibia 74.0677 -0 0
rfoot -28.9454 -19.2161 0.00281889
rtoes -14.185 0 0
lowerback 14.7193 5.27488 0.681371
upperback -2.58262 7.3358 1.52439
thorax -11.1587 3.47822 -0.565702
lowerneck -3.57785 8.03143 1.00341
upperneck 8.05162 10.5327 1.63265
head 3.25984 5.29897 0.666798
lclavicle -9.54712e-15 -1.36802e-14 -1.58649e-30
lhumerus -2.54612 5.30096 82.6746
lradius 90.688 -0 0
lwrist -19.1406 0 0
lhand -39.6328 28.9381 0.0175105
lfingers 7.12502 -0 0
lthumb -12.6132 58.5242 0.0191604
rclavicle -9.54712e-15 -1.36802e-14 -1.58649e-30
rhumerus -48.8994 47.2671 -100.048
rradius 103.805 -0 0
rwrist -74.0373 0 0
rhand 0.264207 -28.6078 0.154492
rfingers 7.12502 -0 0
rthumb 25.8315 -56.7156 0.188501
2761
root -3.77427 14.6753 -28.7856 144.885 -78.295 -147.702
lfemur -45.0766 33.1989 -4.45017
ltibia 54.5205 -0 0
lfoot 2.59187 1.1241 -0.255427
ltoes -19.3221 0 0
rfemur -29.3179 -16.6055 18.9256
rtibia 73.9964 -0 0
rfoot -28.9122 -19.2159 0.00284983
rtoes -14.1924 0 0
lowerback 14.702 5.26853 0.677858
upperback -2.58626 7.32656 1.52479
thorax -11.1527 3.47427 -0.560462
lowerneck -3.58501 8.00624 0.985976
upperneck 8.06157 10.4991 1.64293
head 3.26392 5.28219 0.671074
lclavicle -9.46482e-15 -1.36229e-14 -1.60388e-30
lhumerus -2.59927 5.27361 82.6838
lradius 90.5625 -0 0
lwrist -19.1416 0 0
lhand -39.6206 28.9424 0.0177025
lfingers 7.12502 -0 0
lthumb -12.6014 58.529 0.0193705
rclavicle -9.46482e-15 -1.36229e-14 -1.60388e-30
rhumerus -48.8437 47.1923 -99.9833
rradius 103.667 -0 0
rwrist -73.8853 0 0
rhand 0.227984 -28.6204 0.156188
rfingers 7.12502 -0 0
rthumb 25.7966 -56.7316 0.190571
2762
root -3.7644 14.6797 -28.7943 144.307 -78.4594 -147.118
lfemur -45.0115 33.1286 -4.43916
ltibia 54.4829 -0 0
lfoot 2.55293 1.14325 -0.25819
ltoes -19.3634 0 0
rfemur -29.2942 -16.5731 18.9208
rtibia 73.9251 -0 0
rfoot -28.879 -19.2156 0.00288063
rtoes -14.1998 0 0
lowerback 14.6847 5.26218 0.674347
upperback -2.58991 7.31731 1.52519
thorax -11.1468 3.47032 -0.555222
lowerneck -3.59215 7.98106 0.968548
upperneck 8.07152 10.4655 1.65321
head 3.26799 5.26542 0.675348
lclavicle -9.38252e-15 -1.35657e-14 -1.6212e-30
lhumerus -2.65243 5.24627 82.6931
lradius 90.4369 -0 0
lwrist -19.1426 0 0
lhand -39.6084 28.9466 0.0178937
lfingers 7.12502 -0 0
lthumb -12.5897 58.5339 0.0195797
rclavicle -9.38252e-15 -1.35657e-14 -1.6212e-30
rhumerus -48.7882 47.1174 -99.9189
rradius 103.53 -0 0
rwrist -73.7332 0 0
rhand 0.19176 -28.633 0.157877
rfingers 7.12502 -0 0
rthumb 25.7618 -56.7476 0.192631
2763
root -3.75454 14.6842 -28.803 143.712 -78.6226 -146.517
lfemur -44.9464 33.0584 -4.42826
ltibia 54.4453 -0 0
lfoot 2.51399 1.16239 -0.260939
ltoes -19.4046 0 0
rfemur -29.2706 -16.5407 18.9161
rtibia 73.8538 -0 0
rfoot -28.8458 -19.2154 0.00291128
rtoes -14.2072 0 0
lowerback 14.6674 5.25582 0.670838
upperback -2.59355 7.30807 1.5256
thorax -11.1408 3.46637 -0.549983
lowerneck -3.59929 7.95588 0.951123
upperneck 8.08145 10.4319 1.66347
head 3.27206 5.24865 0.679621
lclavicle -9.30022e-15 -1.35084e-14 -1.63843e-30
lhumerus -2.70559 5.21894 82.7023
lradius 90.3113 -0 0
lwrist -19.1436 0 0
lhand -39.5962 28.9509 0.0180839
lfingers 7.12502 -0 0
lthumb -12.5779 58.5387 0.0197878
rclavicle -9.30022e-15 -1.35084e-14 -1.63843e-30
rhumerus -48.7329 47.0424 -99.8547
rradius 103.392 -0 0
rwrist -73.5811 0 0
rhand 0.155535 -28.6456 0.159558
rfingers 7.12502 -0 0
rthumb 25.727 -56.7636 0.194682
2764
root -3.74467 14.6887 -28.8116 143.1 -78.7845 -145.899
lfemur -44.8813 32.9881 -4.41746
ltibia 54.4077 -0 0
lfoot 2.47504 1.18154 -0.263676
ltoes -19.4459 0 0
rfemur -29.2469 -16.5083 18.9113
rtibia 73.7825 -0 0
rfoot -28.8126 -19.2151 0.00294179
rtoes -14.2146 0 0
lowerback 14.6501 5.24947 0.667331
upperback -2.5972 7.29882 1.526
thorax -11.1348 3.46242 -0.544745
lowerneck -3.60642 7.93069 0.933703
upperneck 8.09138 10.3984 1.67373
head 3.27612 5.23188 0.683893
lclavicle -9.21793e-15 -1.34512e-14 -1.65558e-30
lhumerus -2.75876 5.19162 82.7116
lradius 90.1857 -0 0
lwrist -19.1445 0 0
lhand -39.584 28.9552 0.0182732
lfingers 7.12502 -0 0
lthumb -12.5661 58.5435 0.019995
rclavicle -9.21793e-15 -1.34512e-14 -1.65558e-30
rhumerus -48.6778 46.9675 -99.7907
rradius 103.255 -0 0
rwrist -73.429 0 0
rhand 0.11931 -28.6582 0.16123
rfingers 7.12502 -0 0
rthumb 25.6922 -56.7796 0.196722
